
        <svg xmlns="http://www.w3.org/2000/svg" xmlns:xlink="http://www.w3.org/1999/xlink" version="1.1" width="3171.4285714285716" height="2948.5714285714284" viewBox="0 0 3171.4285714285716 2948.5714285714284">
			
			<g transform="scale(8.571428571428571) translate(10, 10)">
				<defs id="SvgjsDefs2273"/><g id="SvgjsG2274" featureKey="rootContainer" transform="matrix(1,0,0,1,0,0)" fill="#fff"><rect y="0" height="1" width="1" opacity="0"/><rect y="319" width="350" height="5"/></g><g id="SvgjsG2275" featureKey="symbolFeature-0" transform="matrix(0.19013987481594086,0,0,0.19013987481594086,79.90153926625186,-5.824525595306184)" fill="#fff"><g xmlns="http://www.w3.org/2000/svg"><path d="M661.8,226L637,215.3c-12.6-5.4-27.4,0.4-32.8,13l-36.9,85.7L269.8,185.9c-4.2-34.1-33.4-60.6-68.6-60.6   c-38.1,0-69.2,31-69.2,69.1c0,38.1,31,69.2,69.2,69.2c12.3,0,23.9-3.2,33.9-8.9l322.4,138.9l27.1,11.7c10.8,4.7,23.3,1,30-8.2   c1.1-1.5,2-3.1,2.7-4.8l11.1-25.7l0.2-0.4l46.3-107.5C680.3,246.2,674.4,231.5,661.8,226z M201.2,231.9c-2.4,0-4.7-0.2-7-0.7   c-17.3-3.3-30.4-18.5-30.4-36.8c0-20.6,16.8-37.4,37.4-37.4c11.2,0,21.2,4.9,28,12.7c5.8,6.6,9.4,15.3,9.4,24.8   C238.6,215.1,221.8,231.9,201.2,231.9z"/><path d="M628.3,366.7c-0.1,0.3-0.2,0.5-0.3,0.8l-10.7,24.8c0,0,0,0.1-0.1,0.1L628.3,366.7z"/><path d="M545.3,279.8L387.9,212c-6.1-2.6-8.9-9.7-6.3-15.8l21-48.7c2.6-6.1,9.7-8.9,15.8-6.3l157.4,67.8   c6.1,2.6,8.9,9.7,6.3,15.8l-21,48.7C558.5,279.6,551.4,282.4,545.3,279.8z"/><path d="M614.5,397.2c-6.7,9.2-19.2,12.9-30.1,8.3l-24.8-10.7c-0.7-0.3-1.5-0.7-2.2-1.1l27.1,11.7   C595.4,410,607.8,406.4,614.5,397.2z"/><path d="M630.3,632.5l-24.9-10.6c0,0-0.1,0-0.1-0.1L630.3,632.5z"/><path d="M717.5,549.4l67.1-157.7c2.6-6.1,9.7-8.9,15.7-6.3l48.7,20.7c6.1,2.6,8.9,9.7,6.3,15.7l-67.1,157.7   c-2.6,6.1-9.7,8.9-15.7,6.3l-48.7-20.7C717.8,562.5,714.9,555.4,717.5,549.4z"/><path d="M597,616.1c0.1,0.1,0.1,0.1,0.2,0.2C597.2,616.2,597.1,616.2,597,616.1C597.1,616.1,597.1,616.1,597,616.1z   "/><path d="M597.2,616.2c0.3,0.3,0.5,0.6,0.8,0.8C597.7,616.8,597.5,616.5,597.2,616.2z"/><path d="M596.1,615c0.3,0.4,0.6,0.7,0.9,1c-6.7-7-9-17.6-5-27l10.6-24.9c0.3-0.7,0.7-1.4,1.1-2.1l-11.5,27.1   c-1.5,3.6-2.2,7.4-2,11.1c0,0.3,0,0.5,0.1,0.7c0,0.3,0,0.5,0.1,0.8c0,0,0,0.1,0,0.1c0.1,0.4,0.1,0.9,0.2,1.3   c0.1,0.4,0.1,0.8,0.2,1.2c0,0.2,0.1,0.4,0.2,0.6c0.1,0.4,0.2,0.7,0.3,1c0.1,0.4,0.2,0.8,0.4,1.2c0,0.2,0.1,0.3,0.2,0.5   c0.1,0.4,0.3,0.8,0.5,1.1c0.2,0.4,0.3,0.7,0.5,1.1c0.1,0.2,0.2,0.5,0.4,0.7c0,0.1,0.1,0.2,0.1,0.3c0.2,0.3,0.3,0.6,0.5,0.8   c0.1,0.3,0.3,0.5,0.5,0.7c0.2,0.3,0.4,0.7,0.7,1c0.2,0.2,0.3,0.5,0.5,0.7C595.6,614.4,595.8,614.7,596.1,615z"/><path d="M599.3,618.2c-0.4-0.4-0.8-0.7-1.2-1.1C598.4,617.4,598.8,617.8,599.3,618.2z"/><path d="M375.8,610.9L365,636.6c0.1-0.2,0.2-0.5,0.3-0.7l10.5-24.9C375.8,610.9,375.8,610.9,375.8,610.9z"/><path d="M448.8,722.8l158,66.4c6.1,2.6,9,9.6,6.4,15.7l-20.5,48.8c-2.6,6.1-9.6,9-15.7,6.4l-158-66.4   c-6.1-2.6-9-9.6-6.4-15.7l20.5-48.8C435.6,723.1,442.7,720.2,448.8,722.8z"/><path d="M435.5,609l-27.1-11.4c-9.7-4-20.6-1.5-27.5,5.6c6.9-7.2,17.9-9.8,27.6-5.7l24.9,10.5   C434.2,608.3,434.9,608.6,435.5,609z"/><path d="M385.7,381.4l-26-10.8c0.3,0.1,0.6,0.2,0.9,0.4l25,10.4C385.7,381.3,385.7,381.3,385.7,381.4z"/><path d="M274.1,454.8l-65.7,158.3c-2.5,6.1-9.6,9-15.7,6.5l-48.9-20.3c-6.1-2.5-9-9.6-6.5-15.7L203,425.4   c2.5-6.1,9.6-9,15.7-6.5l48.9,20.3C273.8,441.7,276.7,448.7,274.1,454.8z"/><g><path d="M798.8,133c-38.1,0-69.2,31-69.2,69.1c0,13.9,4.1,26.8,11.2,37.6L603.7,562l-11.5,27.1    c-1.5,3.6-2.2,7.4-2,11.1c0,0.2,0,0.5,0.1,0.7c0,0.3,0,0.5,0.1,0.8c0,0,0,0.1,0,0.1c0.1,0.4,0.1,0.9,0.2,1.3    c0.1,0.4,0.1,0.8,0.2,1.2c0,0.2,0.1,0.4,0.2,0.6c0.1,0.4,0.2,0.7,0.3,1c0.1,0.4,0.2,0.8,0.4,1.2c0,0.2,0.1,0.3,0.2,0.5    c0.1,0.4,0.3,0.8,0.5,1.1c0.2,0.4,0.3,0.7,0.5,1.1c0.1,0.2,0.2,0.5,0.4,0.7c0,0.1,0.1,0.2,0.1,0.3c0.2,0.3,0.3,0.6,0.5,0.8    c0.1,0.3,0.3,0.5,0.5,0.7c0.2,0.3,0.4,0.7,0.7,1c0.2,0.2,0.3,0.5,0.5,0.7c0.3,0.3,0.5,0.6,0.8,1c0.2,0.2,0.3,0.4,0.5,0.6    c0.1,0.1,0.1,0.1,0.2,0.2c0.1,0.1,0.1,0.1,0.2,0.2c0.1,0.1,0.1,0.1,0.1,0.1c0.7,0.7,1.4,1.4,2.2,2c0,0,0,0,0,0    c0.4,0.3,0.8,0.6,1.2,0.9c1.5,1.1,3.1,2,4.8,2.7l25,10.7l1.2,0.5l107.7,45.8c12.6,5.4,27.4-0.6,32.7-13.2l10.6-24.9    c5.4-12.6-0.6-27.3-13.2-32.7l-85.9-36.5l128.2-301.3c32.1-6,56.4-34.2,56.4-68C868,164,837,133,798.8,133z M826.1,227.7    c-6.8,7.3-16.5,11.8-27.3,11.8c-20.6,0-37.4-16.8-37.4-37.4c0-0.7,0-1.5,0.1-2.2v0c1.1-19.6,17.4-35.2,37.4-35.2    c20.6,0,37.4,16.8,37.4,37.4C836.3,212,832.4,221,826.1,227.7z"/></g><g><path d="M392.1,385.2c-1.9-1.6-4-2.9-6.3-3.8l-26-10.8l-0.3-0.1l-108.1-44.8c-12.7-5.3-27.4,0.8-32.6,13.5    l-10.4,25c-5.3,12.7,0.8,27.4,13.5,32.6l86.2,35.8L181.7,737.2c-28.7,8.4-49.7,35-49.7,66.4c0,38.1,31,69.2,69.2,69.2    c38.1,0,69.2-31,69.2-69.2c0-16.2-5.6-31.1-15-42.9l132.5-319.5c0.4-0.7,0.7-1.4,1-2.1l10.4-25C403.5,403.7,400.3,392,392.1,385.2    z M201.2,841c-20.6,0-37.4-16.8-37.4-37.4c0-7.6,2.3-14.6,6.1-20.5c6.7-10.2,18.2-16.9,31.3-16.9c19.3,0,35.2,14.7,37.2,33.5v0    c0.1,1.3,0.2,2.6,0.2,3.9C238.6,824.2,221.8,841,201.2,841z"/></g><g><path d="M795,736.3c-12.5,0-24.3,3.4-34.5,9.2L435.5,609l-27.1-11.4c-9.7-4-20.6-1.5-27.5,5.6    c-2.1,2.2-3.9,4.7-5.1,7.7L365,636.6L319.5,745c-5.3,12.7,0.7,27.4,13.3,32.7l24.9,10.5c12.7,5.3,27.4-0.7,32.7-13.3l36.2-86.1    l299.9,126c4.5,33.8,33.5,59.9,68.5,59.9c38.1,0,69.2-31,69.2-69.2C864.2,767.4,833.2,736.3,795,736.3z M795,842.9    c-11.3,0-21.4-5-28.2-12.9h0c-5.7-6.6-9.2-15.2-9.2-24.5c0-20.6,16.8-37.4,37.4-37.4c1.9,0,3.7,0.1,5.6,0.4    c18,2.7,31.9,18.3,31.9,37C832.5,826.1,815.7,842.9,795,842.9z"/></g></g></g><g id="SvgjsG2276" featureKey="nameFeature-0" transform="matrix(4.081061363220215,0,0,4.081061363220215,0,112.09113924681236)" fill="#fff"><path d="M3.8 39.92 l0 6.92 l-3.8 0 l0 -29.48 l5.92 0 c2.64 0 4.76 2.12 4.76 4.76 l0 13.04 c0 2.6 -2.12 4.76 -4.76 4.76 l-2.12 0 z M3.8 21.16 l0 14.96 l2.12 0 c0.56 0 0.96 -0.44 0.96 -0.96 l0 -13.04 c0 -0.52 -0.4 -0.96 -0.96 -0.96 l-2.12 0 z M23.107 32.76 l0 7.2 l-3.68 0 l0 -0.12 c-0.36 0.08 -0.72 0.12 -1.12 0.12 c-2.8 0 -5.04 -2.24 -5.04 -5.04 l0 -4.28 c0 -1.12 0.44 -2.16 1.24 -2.96 c0.76 -0.76 1.8 -1.2 2.92 -1.2 l1.92 0 l0 -4.32 c0 -0.6 -0.52 -1.12 -1.12 -1.12 l-0.2 0 c-0.64 0 -1.12 0.52 -1.12 1.12 l0 3.04 l-3.72 0 l0 -3.04 c0 -2.68 2.16 -4.84 4.84 -4.84 l0.2 0 c2.68 0 4.84 2.16 4.84 4.84 z M18.307 36.24 c0.6 0 1.12 -0.48 1.12 -1.08 l-0.04 -4.92 l-1.96 -0.04 c-0.16 0 -0.24 0.08 -0.32 0.12 c-0.04 0.08 -0.12 0.16 -0.12 0.32 l0 4.28 c0 0.72 0.6 1.32 1.32 1.32 z M30.813999999999997 18.28 c2.72 0 4.92 2.16 4.92 4.88 l0 1.92 l-3.8 0 l0 -1.92 c0 -0.64 -0.48 -1.12 -1.12 -1.12 l-0.84 0 c-0.6 0 -1.12 0.48 -1.12 1.12 l-0.08 16.88 l-3.76 0 l0.08 -16.88 l0 -5.76 l3.76 0 l0 1 c0.36 -0.08 0.76 -0.12 1.12 -0.12 l0.84 0 z M47.601 32.76 l0 7.2 l-3.68 0 l0 -0.12 c-0.36 0.08 -0.72 0.12 -1.12 0.12 c-2.8 0 -5.04 -2.24 -5.04 -5.04 l0 -4.28 c0 -1.12 0.44 -2.16 1.24 -2.96 c0.76 -0.76 1.8 -1.2 2.92 -1.2 l1.92 0 l0 -4.32 c0 -0.6 -0.52 -1.12 -1.12 -1.12 l-0.2 0 c-0.64 0 -1.12 0.52 -1.12 1.12 l0 3.04 l-3.72 0 l0 -3.04 c0 -2.68 2.16 -4.84 4.84 -4.84 l0.2 0 c2.68 0 4.84 2.16 4.84 4.84 z M42.800999999999995 36.24 c0.6 0 1.12 -0.48 1.12 -1.08 l-0.04 -4.92 l-1.96 -0.04 c-0.16 0 -0.24 0.08 -0.32 0.12 c-0.04 0.08 -0.12 0.16 -0.12 0.32 l0 4.28 c0 0.72 0.6 1.32 1.32 1.32 z M60.388 42.88 c0 2.64 -2.12 4.76 -4.72 4.76 l-1.2 0 c-2.64 0 -4.76 -2.12 -4.76 -4.76 l3.8 0 c0 0.52 0.4 0.96 0.96 0.96 l1.2 0 c0.52 0 0.92 -0.44 0.92 -0.96 l0 -3.04 c-0.36 0.08 -0.72 0.16 -1.12 0.16 l-0.84 0 c-2.72 0 -4.92 -2.24 -4.92 -4.96 l0.08 -12.84 c0 -2.72 2.2 -4.92 4.92 -4.92 l0.08 0 l0.72 0.04 c2.68 0 4.88 2.2 4.88 4.92 l0 20.64 z M55.467999999999996 36.2 c0.64 0 1.12 -0.52 1.12 -1.16 l0 -12.8 c0 -0.64 -0.52 -1.12 -1.12 -1.12 l-0.08 0 l-0.72 -0.04 c-0.6 0 -1.08 0.52 -1.08 1.12 l-0.08 12.88 c0 0.6 0.52 1.12 1.12 1.12 l0.84 0 z M68.295 40.04 c-3 0 -5.4 -2.44 -5.4 -5.4 l0 -11.88 c0 -2.96 2.4 -5.4 5.4 -5.4 c2.96 0 5.36 2.44 5.36 5.4 l0 11.88 c0 2.96 -2.4 5.4 -5.36 5.4 z M68.295 21.2 c-0.88 0 -1.56 0.72 -1.56 1.56 l0 11.88 c0 0.88 0.68 1.56 1.56 1.56 c0.84 0 1.56 -0.68 1.56 -1.56 l0 -11.88 c0 -0.84 -0.72 -1.56 -1.56 -1.56 z M80.96199999999999 17.36 c2.64 0 4.8 2.16 4.8 4.8 l0 18 l-3.84 0 l0 -18 c0 -0.52 -0.44 -0.96 -0.96 -0.96 s-0.96 0.44 -0.96 0.96 l0 18 l-3.84 0 l0 -23.52 l3.84 0 l0 0.84 c0.32 -0.08 0.64 -0.12 0.96 -0.12 z"/></g>
			</g>
		</svg>
	